<svg width="96" height="96" viewBox="0 0 96 96" fill="none" xmlns="http://www.w3.org/2000/svg">
<path d="M0 24C0 10.7452 10.7452 0 24 0H72C85.2548 0 96 10.7452 96 24V72C96 85.2548 85.2548 96 72 96H24C10.7452 96 0 85.2548 0 72V24Z" fill="url(#paint0_linear_2416_5852)"/>
<g clip-path="url(#clip0_2416_5852)">
<path opacity="0.5" d="M-19.5378 67.8428L-7.90562 66.2988C-8.40631 62.7153 -7.79319 59.071 -6.14948 55.8604C-4.50577 52.6498 -1.91107 50.0285 1.28247 48.3522C4.47601 46.6759 8.11373 46.0257 11.7019 46.4901C15.2901 46.9544 18.655 48.5106 21.3398 50.9476C24.0247 53.3846 25.8996 56.5843 26.71 60.1125C27.5204 63.6406 27.227 67.3264 25.8698 70.6694C24.5125 74.0125 22.1571 76.851 19.1232 78.7997C16.0892 80.7485 12.5237 81.713 8.91058 81.5625L8.49325 93.2966C14.5145 93.547 20.4562 91.9394 25.5121 88.692C30.5681 85.4445 34.4935 80.7143 36.7557 75.1433C39.0179 69.5724 39.5074 63.4303 38.1577 57.5505C36.8081 51.6708 33.6846 46.3381 29.2112 42.2759C24.7378 38.2138 19.131 35.619 13.1516 34.8435C7.17219 34.0681 1.10971 35.1496 -4.21323 37.9412C-9.53617 40.7329 -13.8618 45.0996 -16.6033 50.4487C-19.3448 55.7979 -20.3693 61.8706 -19.5378 67.8428Z" fill="white"/>
<path opacity="0.5" d="M114.532 67.8418L102.9 66.2979C103.401 62.7144 102.788 59.07 101.144 55.8594C99.5002 52.6489 96.9055 50.0275 93.7119 48.3512C90.5184 46.6749 86.8807 46.0248 83.2925 46.4891C79.7043 46.9534 76.3394 48.5097 73.6545 50.9467C70.9697 53.3837 69.0948 56.5834 68.2844 60.1115C67.474 63.6396 67.7674 67.3254 69.1246 70.6685C70.4819 74.0115 72.8373 76.85 75.8712 78.7988C78.9052 80.7475 82.4706 81.712 86.0838 81.5615L86.5011 93.2956C80.4799 93.5461 74.5382 91.9385 69.4822 88.691C64.4263 85.4435 60.5009 80.7133 58.2387 75.1424C55.9765 69.5714 55.487 63.4293 56.8366 57.5496C58.1863 51.6698 61.3098 46.3371 65.7832 42.275C70.2566 38.2128 75.8634 35.618 81.8428 34.8426C87.8222 34.0671 93.8847 35.1486 99.2076 37.9402C104.531 40.7319 108.856 45.0986 111.598 50.4478C114.339 55.7969 115.364 61.8696 114.532 67.8418Z" fill="white"/>
<path fill-rule="evenodd" clip-rule="evenodd" d="M37.0578 35.4505C37.9746 35.459 38.8579 35.0833 39.5174 34.4043L41.4334 32.3617C42.1385 31.61 42.9479 31.0187 43.8169 30.5877L43.8169 81.9296H51.2535L51.2535 30.5877C52.1226 31.0187 52.9319 31.61 53.637 32.3617L55.5531 34.4043C56.2125 35.0833 57.0958 35.459 58.0126 35.4505C58.9294 35.442 59.8064 35.05 60.4547 34.3589C61.103 33.6677 61.4708 32.7328 61.4787 31.7554C61.4867 30.7781 61.1343 29.8365 60.4973 29.1334L50.0074 17.9505C49.3516 17.2517 48.4624 16.8591 47.5352 16.8591C46.608 16.8591 45.7188 17.2517 45.0631 17.9505L34.5731 29.1334C33.9362 29.8365 33.5837 30.7781 33.5917 31.7554C33.5997 32.7328 33.9674 33.6677 34.6157 34.3589C35.264 35.05 36.141 35.442 37.0578 35.4505Z" fill="white"/>
</g>
<defs>
<linearGradient id="paint0_linear_2416_5852" x1="0" y1="0" x2="96" y2="96" gradientUnits="userSpaceOnUse">
<stop stop-color="#0FB6B8"/>
<stop offset="1" stop-color="#2FC0C2"/>
</linearGradient>
<clipPath id="clip0_2416_5852">
<rect width="66" height="66" fill="white" transform="translate(15 15)"/>
</clipPath>
</defs>
</svg>
